<?xml version="1.0" encoding="UTF-8" standalone="no"?><!DOCTYPE svg PUBLIC "-//W3C//DTD SVG 1.1//EN" "http://www.w3.org/Graphics/SVG/1.1/DTD/svg11.dtd"><svg width="100%" height="100%" viewBox="0 0 2188 2138" version="1.1" xmlns="http://www.w3.org/2000/svg" xmlns:xlink="http://www.w3.org/1999/xlink" xml:space="preserve" xmlns:serif="http://www.serif.com/" style="fill-rule:evenodd;clip-rule:evenodd;stroke-linejoin:round;stroke-miterlimit:2;"><g id="Layer2"><path d="M1780.87,885.002c14.942,990.429 -378.409,836.389 -686.405,1157.13c-308.004,-320.748 -703.49,-166.694 -688.528,-1157.2l1.885,0c-0,0 435.869,30.706 686.643,-273.158c243.432,294.763 662.034,274.663 686.405,273.228Zm-0,0c-0.001,-0.023 -0.001,-0.046 -0.001,-0.07c1.114,-1.426 1.114,0 1.114,0c0,0 -0.376,0.027 -1.113,0.07Zm-686.405,-273.228c-0.195,-0.236 0.146,-0.179 -0,-0Zm569.023,344.548c-20.208,1.189 -367.298,17.856 -569.145,-226.552c-207.933,251.954 -569.341,226.494 -569.341,226.494l-1.563,0c-12.406,821.295 315.518,693.558 570.904,959.512c255.38,-265.948 581.534,-138.223 569.145,-959.454Zm-0,-0c0.611,-0.036 0.923,-0.058 0.923,-0.058c0,0 0,-1.182 -0.924,0c0,0.019 0,0.039 0.001,0.058Zm-569.145,-226.552c0.122,-0.148 -0.161,-0.195 0,-0Z" style="fill:#fff;"/></g><g id="Layer5"><path d="M1098.11,423.105c-36.188,26.237 -73.025,127.03 -97.313,140.472c-28.373,10.861 -147.59,14.054 -184.007,10.694c-41.005,-15.426 -114.259,-61.81 -115.025,-76.155c8.181,-18.889 158.171,-38.926 158.171,-38.926l1.902,-1.537c-0,0 42.514,-71.23 40.569,-102.122c-2.003,-31.811 -47.614,-46.677 -47.614,-46.677l-165.654,-0c-0,-0 -7.073,-50.835 50.009,-84.963c33.658,-20.123 91.505,-12.539 124.823,-31.837c52.851,-30.61 92.752,-94.37 172.962,-95.336c124.556,-1.5 191.023,127.968 284.199,355.499c4.625,5.514 18.57,8.931 18.57,8.931l-3.554,-1.958c0,0 149.99,20.037 158.171,38.926c-0.766,14.345 -74.02,60.729 -115.025,76.155c-36.417,3.36 -155.634,0.167 -184.007,-10.694c-24.288,-13.442 -60.989,-114.235 -97.177,-140.472c0.017,-0.048 -0.099,0.022 -0,-0Zm-143.413,-234.808c-11.035,0 -19.993,8.959 -19.993,19.993c0,11.035 8.958,19.993 19.993,19.993c11.034,-0 19.993,-8.958 19.993,-19.993c-0,-11.034 -8.959,-19.993 -19.993,-19.993Z" style="fill:#fff;"/></g><g id="Layer3"><path d="M683.396,1298.85c-14.008,-0 -27.117,-2.245 -39.328,-6.734c-12.212,-4.58 -22.852,-11.179 -31.92,-19.799c-8.889,-8.44 -15.893,-18.856 -21.011,-31.247c-5.118,-12.48 -7.677,-26.173 -7.677,-41.078c-0,-14.816 2.559,-28.508 7.677,-41.079c5.208,-12.66 12.481,-23.615 21.819,-32.863c9.158,-9.069 20.158,-16.072 32.997,-21.011c12.84,-5.028 26.578,-7.542 41.214,-7.542c10.595,0 20.247,1.302 28.957,3.906c8.71,2.514 16.072,5.387 22.088,8.62l8.351,-7.408l11.717,0l1.212,69.766l-11.852,0c-6.734,-21.28 -14.815,-36.903 -24.243,-46.87c-9.428,-9.966 -20.921,-14.95 -34.479,-14.95c-16.881,0 -29.721,7.453 -38.52,22.358c-8.799,14.815 -13.199,35.646 -13.199,62.493c-0,15.175 1.481,28.149 4.445,38.924c3.052,10.685 7.003,19.305 11.852,25.86c5.208,6.824 11.358,11.852 18.451,15.084c7.094,3.143 14.95,4.714 23.57,4.714c12.571,0 23.75,-3.412 33.537,-10.236c9.876,-6.824 18.855,-17.15 26.936,-30.977l11.583,7.003c-3.861,7.902 -8.26,14.995 -13.199,21.28c-4.938,6.196 -10.64,11.538 -17.105,16.028c-7.093,4.938 -14.95,8.799 -23.569,11.583c-8.53,2.783 -18.632,4.175 -30.304,4.175Z" style="fill:#3498db;fill-rule:nonzero;"/><path d="M950.763,1151.37l-10.236,-0c-2.604,-7.273 -7.093,-14.636 -13.468,-22.089c-6.375,-7.452 -12.705,-11.852 -18.991,-13.199c-2.693,-0.628 -6.464,-0.987 -11.313,-1.077c-4.759,-0.18 -8.71,-0.269 -11.852,-0.269l-27.745,-0l-0,73.807l19.664,-0c4.938,-0 9.428,-0.584 13.468,-1.751c4.041,-1.168 7.722,-3.412 11.044,-6.735c2.065,-2.065 4.13,-5.701 6.196,-10.909c2.155,-5.208 3.546,-9.742 4.175,-13.603l10.236,-0l-0,79.733l-10.236,-0c-0.539,-3.771 -1.931,-8.485 -4.175,-14.142c-2.155,-5.746 -4.22,-9.697 -6.196,-11.852c-2.963,-3.232 -6.465,-5.432 -10.505,-6.6c-4.041,-1.257 -8.71,-1.885 -14.007,-1.885l-19.664,-0l-0,55.086c-0,5.746 0.404,10.325 1.212,13.737c0.898,3.323 2.514,5.882 4.849,7.677c2.244,1.706 5.297,2.829 9.158,3.368c3.951,0.538 9.293,0.808 16.027,0.808c3.143,-0 6.914,-0.045 11.314,-0.135c4.4,-0.09 8.261,-0.359 11.583,-0.808c3.771,-0.449 7.273,-1.122 10.505,-2.02c3.322,-0.898 5.792,-2.2 7.408,-3.906c4.31,-4.4 9.158,-11.089 14.546,-20.068c5.387,-9.069 8.934,-15.848 10.64,-20.337l9.832,-0l-3.637,59.53l-179.265,-0l0,-10.505c2.515,-0.18 5.927,-0.539 10.237,-1.078c4.309,-0.539 7.362,-1.167 9.158,-1.885c3.412,-1.437 5.702,-3.233 6.869,-5.388c1.167,-2.245 1.751,-5.073 1.751,-8.485l-0,-134.819c-0,-3.232 -0.494,-5.881 -1.482,-7.946c-0.987,-2.155 -3.367,-4.086 -7.138,-5.792c-2.334,-1.077 -5.612,-2.065 -9.832,-2.963c-4.22,-0.898 -7.408,-1.481 -9.563,-1.751l0,-10.505l169.433,0l0,48.756Z" style="fill:#3498db;fill-rule:nonzero;"/><path d="M1243.72,1293.73l-103.572,-0l-0,-10.505c3.053,-0.27 6.779,-0.719 11.179,-1.347c4.489,-0.629 7.542,-1.302 9.158,-2.021c3.322,-1.346 5.702,-3.187 7.138,-5.522c1.437,-2.334 2.155,-5.297 2.155,-8.889l0,-142.765l-65.726,167.951l-16.97,0c-0.808,-2.963 -2.828,-8.844 -6.061,-17.643c-3.142,-8.8 -5.701,-15.848 -7.677,-21.146l-48.351,-131.317l-0,116.233c-0,11.133 0.718,19.619 2.155,25.455c1.526,5.746 3.95,9.966 7.273,12.66c2.244,1.886 6.24,3.682 11.986,5.388c5.837,1.706 9.922,2.693 12.257,2.963l-0,10.505l-82.158,-0l0,-10.505c2.245,-0.27 5.882,-0.853 10.91,-1.751c5.118,-0.988 9.293,-2.649 12.525,-4.984c3.592,-2.514 6.016,-6.734 7.273,-12.66c1.257,-6.016 1.886,-14.546 1.886,-25.59l-0,-94.683c-0,-5.747 -0.718,-10.505 -2.155,-14.277c-1.437,-3.86 -3.592,-6.913 -6.465,-9.158c-3.591,-2.784 -7.273,-4.579 -11.044,-5.387c-3.771,-0.809 -7.587,-1.347 -11.448,-1.617l-0,-10.505l87.949,0l47.139,126.199l39.732,-102.495c1.347,-3.771 2.649,-8.26 3.906,-13.468c1.257,-5.208 1.93,-8.62 2.02,-10.236l84.717,0l-0,10.505c-2.874,0.18 -5.882,0.539 -9.024,1.078c-3.143,0.539 -6.151,1.257 -9.024,2.155c-3.502,1.167 -5.836,3.008 -7.004,5.522c-1.077,2.514 -1.616,5.297 -1.616,8.35l0,135.358c0,3.232 0.539,5.971 1.616,8.216c1.168,2.155 3.502,4.04 7.004,5.656c1.796,0.809 4.714,1.572 8.754,2.29c4.131,0.718 7.318,1.212 9.563,1.482l-0,10.505Z" style="fill:#3498db;fill-rule:nonzero;"/><path d="M1344.35,1298.85c-11.672,-0 -22.582,-1.437 -32.728,-4.31c-10.056,-2.873 -18.586,-6.285 -25.59,-10.236l-9.293,9.428l-11.448,-0l-1.751,-69.093l11.583,-0c2.604,6.555 5.926,13.468 9.966,20.741c4.041,7.273 8.71,13.783 14.008,19.53c5.477,6.015 11.582,10.909 18.317,14.68c6.824,3.771 14.77,5.657 23.839,5.657c12.211,-0 21.549,-2.963 28.014,-8.889c6.555,-6.016 9.832,-13.559 9.832,-22.627c-0,-7.453 -2.784,-13.693 -8.35,-18.721c-5.478,-5.118 -14.008,-9.518 -25.59,-13.199c-7.543,-2.425 -14.501,-4.669 -20.877,-6.735c-6.285,-2.065 -12.211,-4.175 -17.778,-6.33c-12.84,-5.118 -22.402,-12.436 -28.688,-21.953c-6.195,-9.518 -9.293,-20.158 -9.293,-31.921c0,-7.452 1.616,-14.59 4.849,-21.414c3.232,-6.914 7.946,-13.11 14.142,-18.587c5.926,-5.118 13.513,-9.293 22.761,-12.525c9.249,-3.233 19.305,-4.849 30.17,-4.849c10.595,0 20.516,1.482 29.765,4.445c9.248,2.873 16.521,5.791 21.819,8.754l8.215,-8.081l11.718,0l1.077,65.187l-11.582,0c-2.694,-7.003 -5.882,-14.142 -9.563,-21.415c-3.592,-7.362 -7.408,-13.468 -11.448,-18.317c-4.4,-5.207 -9.473,-9.338 -15.22,-12.391c-5.746,-3.142 -12.48,-4.714 -20.202,-4.714c-9.697,0 -17.644,2.739 -23.839,8.216c-6.106,5.477 -9.159,12.256 -9.159,20.337c0,7.633 2.649,13.873 7.947,18.722c5.387,4.848 13.737,9.113 25.051,12.795c6.644,2.244 13.423,4.489 20.337,6.734c6.914,2.245 13.065,4.4 18.452,6.465c13.019,5.028 22.896,11.987 29.63,20.876c6.824,8.799 10.236,19.753 10.236,32.863c0,8.26 -1.93,16.252 -5.791,23.973c-3.861,7.722 -9.069,14.142 -15.623,19.26c-7.184,5.657 -15.489,10.012 -24.917,13.065c-9.428,3.053 -20.427,4.579 -32.998,4.579Z" style="fill:#3498db;fill-rule:nonzero;"/><path d="M1524.17,1298.85c-11.672,-0 -22.582,-1.437 -32.728,-4.31c-10.056,-2.873 -18.586,-6.285 -25.59,-10.236l-9.293,9.428l-11.448,-0l-1.751,-69.093l11.583,-0c2.603,6.555 5.926,13.468 9.966,20.741c4.041,7.273 8.71,13.783 14.007,19.53c5.478,6.015 11.583,10.909 18.317,14.68c6.824,3.771 14.771,5.657 23.84,5.657c12.211,-0 21.549,-2.963 28.014,-8.889c6.555,-6.016 9.832,-13.559 9.832,-22.627c-0,-7.453 -2.784,-13.693 -8.351,-18.721c-5.477,-5.118 -14.007,-9.518 -25.59,-13.199c-7.542,-2.425 -14.501,-4.669 -20.876,-6.735c-6.285,-2.065 -12.211,-4.175 -17.778,-6.33c-12.84,-5.118 -22.402,-12.436 -28.688,-21.953c-6.195,-9.518 -9.293,-20.158 -9.293,-31.921c0,-7.452 1.616,-14.59 4.849,-21.414c3.232,-6.914 7.946,-13.11 14.142,-18.587c5.926,-5.118 13.513,-9.293 22.761,-12.525c9.248,-3.233 19.305,-4.849 30.169,-4.849c10.596,0 20.517,1.482 29.766,4.445c9.248,2.873 16.521,5.791 21.819,8.754l8.215,-8.081l11.718,0l1.077,65.187l-11.583,0c-2.693,-7.003 -5.881,-14.142 -9.562,-21.415c-3.592,-7.362 -7.408,-13.468 -11.448,-18.317c-4.4,-5.207 -9.473,-9.338 -15.22,-12.391c-5.746,-3.142 -12.48,-4.714 -20.202,-4.714c-9.698,0 -17.644,2.739 -23.839,8.216c-6.106,5.477 -9.159,12.256 -9.159,20.337c0,7.633 2.649,13.873 7.946,18.722c5.388,4.848 13.738,9.113 25.052,12.795c6.644,2.244 13.423,4.489 20.337,6.734c6.914,2.245 13.064,4.4 18.452,6.465c13.019,5.028 22.896,11.987 29.63,20.876c6.824,8.799 10.236,19.753 10.236,32.863c0,8.26 -1.93,16.252 -5.791,23.973c-3.861,7.722 -9.069,14.142 -15.623,19.26c-7.184,5.657 -15.489,10.012 -24.917,13.065c-9.428,3.053 -20.427,4.579 -32.998,4.579Z" style="fill:#3498db;fill-rule:nonzero;"/></g><g id="Layer4"><path d="M1527.41,519.172c-22.554,-5.419 -280.746,176.64 -280.746,176.64c-0,-0 89.521,74.271 129.706,74.24c19.507,-0.016 196.267,-97.28 196.267,-97.28c-0,-0 -29.036,-149.71 -45.227,-153.6Z" style="fill:#fff;"/><path d="M1567.34,500.784l49.066,153.6l376.332,-0c0,-0 148.467,-47.228 177.267,-153.6c0.2,-0.741 -602.665,0 -602.665,0Z" style="fill:#fff;"/><path d="M1971.77,692.098c0.736,-1.056 -347.477,0 -347.477,0c0,0 -141.534,47.622 -194.22,97.363c13.434,23.664 175.75,60.959 313.699,52.51c56.22,-3.443 135.02,-16.585 227.998,-149.873Z" style="fill:#fff;"/><path d="M660.087,519.172c22.554,-5.419 280.746,176.64 280.746,176.64c0,-0 -89.521,74.271 -129.706,74.24c-19.507,-0.016 -196.267,-97.28 -196.267,-97.28c0,-0 29.036,-149.71 45.227,-153.6Z" style="fill:#fff;"/><path d="M620.165,500.784l-49.066,153.6l-376.332,-0c-0,-0 -148.467,-47.228 -177.267,-153.6c-0.2,-0.741 602.665,0 602.665,0Z" style="fill:#fff;"/><path d="M215.735,692.098c-0.736,-1.056 347.477,0 347.477,0c-0,0 141.534,47.622 194.22,97.363c-13.434,23.664 -175.75,60.959 -313.699,52.51c-56.22,-3.443 -135.02,-16.585 -227.998,-149.873Z" style="fill:#fff;"/></g></svg>