<?xml version="1.0" encoding="UTF-8" standalone="no"?>
<!DOCTYPE svg PUBLIC "-//W3C//DTD SVG 1.1//EN" "http://www.w3.org/Graphics/SVG/1.1/DTD/svg11.dtd">
<svg width="100%" height="100%" viewBox="0 0 525 513" version="1.1" xmlns="http://www.w3.org/2000/svg" xmlns:xlink="http://www.w3.org/1999/xlink" xml:space="preserve" xmlns:serif="http://www.serif.com/" style="fill-rule:evenodd;clip-rule:evenodd;stroke-linejoin:round;stroke-miterlimit:2;">
    <g transform="matrix(1,0,0,1,1.17506,1)">
        <g id="Layer2">
            <path d="M426.233,211.401C429.819,449.103 335.415,412.134 261.495,489.112C187.575,412.132 92.658,449.105 96.249,211.384L96.701,211.384C96.701,211.384 201.31,218.753 261.495,145.826C319.919,216.569 420.384,211.745 426.233,211.401ZM426.233,211.401C426.233,211.395 426.233,211.389 426.232,211.384C426.5,211.041 426.5,211.384 426.5,211.384C426.5,211.384 426.41,211.39 426.233,211.401ZM261.495,145.826C261.449,145.769 261.531,145.783 261.495,145.826ZM398.061,228.517C393.211,228.803 309.909,232.803 261.466,174.145C211.562,234.614 124.824,228.503 124.824,228.503L124.449,228.503C121.472,425.614 200.174,394.957 261.466,458.786C322.758,394.959 401.034,425.613 398.061,228.517ZM398.061,228.517C398.208,228.509 398.283,228.503 398.283,228.503C398.283,228.503 398.283,228.22 398.061,228.503C398.061,228.508 398.061,228.513 398.061,228.517ZM261.466,174.145C261.496,174.109 261.428,174.098 261.466,174.145Z" style="fill:#0e1280;"/>
        </g>
    </g>
    <g id="Layer5">
        <path d="M263.546,101.545C254.861,107.842 246.02,132.032 240.191,135.259C233.381,137.865 204.769,138.632 196.029,137.825C186.188,134.123 168.607,122.991 168.423,119.548C170.387,115.014 206.384,110.206 206.384,110.206L206.841,109.837C206.841,109.837 217.044,92.741 216.577,85.327C216.097,77.693 205.15,74.125 205.15,74.125L165.393,74.125C165.393,74.125 163.695,61.925 177.395,53.734C185.473,48.904 199.356,50.724 207.353,46.093C220.037,38.746 229.613,23.444 248.863,23.212C278.757,22.852 294.709,53.925 317.071,108.532C318.181,109.855 321.528,110.676 321.528,110.676L320.675,110.206C320.675,110.206 356.673,115.014 358.636,119.548C358.452,122.991 340.871,134.123 331.03,137.825C322.29,138.632 293.678,137.865 286.868,135.259C281.039,132.032 272.231,107.842 263.546,101.545C263.55,101.534 263.522,101.55 263.546,101.545ZM229.127,45.191C226.479,45.191 224.328,47.341 224.328,49.99C224.328,52.638 226.479,54.788 229.127,54.788C231.775,54.788 233.925,52.638 233.925,49.99C233.925,47.341 231.775,45.191 229.127,45.191Z" style="fill:#0e1280;"/>
    </g>
    <g transform="matrix(1,0,0,1,5.80504,-4)">
        <g id="Layer3">
            <g transform="matrix(66.2,0,0,66.2,142.274,314.495)">
                <path d="M0.667,-0.677L0.667,-0.448L0.648,-0.448C0.634,-0.508 0.607,-0.554 0.568,-0.585C0.529,-0.617 0.485,-0.633 0.436,-0.633C0.394,-0.633 0.356,-0.621 0.322,-0.598C0.287,-0.574 0.262,-0.543 0.246,-0.504C0.226,-0.455 0.215,-0.401 0.215,-0.34C0.215,-0.281 0.223,-0.227 0.238,-0.178C0.253,-0.13 0.276,-0.093 0.308,-0.068C0.34,-0.043 0.381,-0.031 0.432,-0.031C0.474,-0.031 0.512,-0.04 0.546,-0.058C0.581,-0.076 0.618,-0.108 0.656,-0.152L0.656,-0.095C0.619,-0.056 0.58,-0.028 0.54,-0.011C0.5,0.007 0.453,0.015 0.399,0.015C0.329,0.015 0.266,0.001 0.211,-0.027C0.156,-0.056 0.114,-0.096 0.084,-0.149C0.054,-0.202 0.04,-0.259 0.04,-0.319C0.04,-0.382 0.056,-0.442 0.089,-0.499C0.122,-0.555 0.167,-0.599 0.223,-0.63C0.279,-0.662 0.339,-0.677 0.402,-0.677C0.448,-0.677 0.498,-0.667 0.549,-0.647C0.579,-0.635 0.598,-0.629 0.606,-0.629C0.617,-0.629 0.626,-0.633 0.633,-0.641C0.641,-0.648 0.646,-0.661 0.648,-0.677L0.667,-0.677Z" style="fill:url(#_Radial1);fill-rule:nonzero;"/>
            </g>
            <g transform="matrix(66.2,0,0,66.2,190.28,314.495)">
                <path d="M0.272,-0.624L0.272,-0.354L0.286,-0.354C0.328,-0.354 0.358,-0.368 0.377,-0.394C0.396,-0.42 0.408,-0.459 0.413,-0.511L0.432,-0.511L0.432,-0.164L0.413,-0.164C0.409,-0.202 0.401,-0.233 0.388,-0.257C0.376,-0.281 0.361,-0.297 0.345,-0.305C0.328,-0.314 0.304,-0.318 0.272,-0.318L0.272,-0.131C0.272,-0.095 0.274,-0.073 0.277,-0.064C0.28,-0.056 0.286,-0.05 0.294,-0.044C0.303,-0.039 0.317,-0.037 0.335,-0.037L0.375,-0.037C0.437,-0.037 0.486,-0.051 0.523,-0.08C0.561,-0.108 0.588,-0.152 0.604,-0.21L0.622,-0.21L0.592,-0L0.02,-0L0.02,-0.018L0.042,-0.018C0.061,-0.018 0.077,-0.021 0.088,-0.028C0.097,-0.033 0.103,-0.041 0.108,-0.052C0.111,-0.06 0.113,-0.08 0.113,-0.113L0.113,-0.549C0.113,-0.579 0.112,-0.597 0.111,-0.604C0.108,-0.615 0.102,-0.624 0.093,-0.63C0.08,-0.639 0.063,-0.644 0.042,-0.644L0.02,-0.644L0.02,-0.662L0.574,-0.662L0.574,-0.466L0.556,-0.466C0.546,-0.514 0.533,-0.549 0.516,-0.569C0.499,-0.59 0.475,-0.605 0.443,-0.615C0.425,-0.621 0.391,-0.624 0.341,-0.624L0.272,-0.624Z" style="fill:url(#_Radial2);fill-rule:nonzero;"/>
            </g>
            <g transform="matrix(66.2,0,0,66.2,234.634,314.495)">
                <path d="M0.477,-0.226L0.656,-0.662L0.926,-0.662L0.926,-0.644L0.904,-0.644C0.885,-0.644 0.869,-0.641 0.857,-0.634C0.849,-0.629 0.843,-0.622 0.838,-0.611C0.834,-0.603 0.833,-0.583 0.833,-0.55L0.833,-0.113C0.833,-0.079 0.834,-0.058 0.838,-0.05C0.841,-0.041 0.849,-0.034 0.86,-0.027C0.871,-0.021 0.886,-0.018 0.904,-0.018L0.926,-0.018L0.926,-0L0.58,-0L0.58,-0.018L0.602,-0.018C0.621,-0.018 0.637,-0.021 0.648,-0.028C0.657,-0.033 0.663,-0.041 0.668,-0.052C0.672,-0.06 0.673,-0.08 0.673,-0.113L0.673,-0.604L0.419,-0L0.408,-0L0.15,-0.6L0.15,-0.133C0.15,-0.101 0.151,-0.081 0.152,-0.073C0.157,-0.057 0.166,-0.044 0.18,-0.033C0.194,-0.023 0.216,-0.018 0.247,-0.018L0.247,-0L0.02,-0L0.02,-0.018L0.027,-0.018C0.042,-0.018 0.055,-0.02 0.068,-0.025C0.081,-0.03 0.09,-0.037 0.097,-0.045C0.103,-0.054 0.108,-0.066 0.112,-0.081C0.112,-0.085 0.113,-0.101 0.113,-0.131L0.113,-0.55C0.113,-0.583 0.111,-0.604 0.107,-0.612C0.104,-0.621 0.097,-0.628 0.085,-0.634C0.074,-0.641 0.06,-0.644 0.041,-0.644L0.02,-0.644L0.02,-0.662L0.291,-0.662L0.477,-0.226Z" style="fill:url(#_Radial3);fill-rule:nonzero;"/>
            </g>
            <g transform="matrix(66.2,0,0,66.2,297.315,314.495)">
                <path d="M0.47,-0.677L0.475,-0.457L0.455,-0.457C0.446,-0.512 0.422,-0.556 0.385,-0.59C0.348,-0.624 0.309,-0.641 0.266,-0.641C0.232,-0.641 0.206,-0.632 0.187,-0.614C0.167,-0.596 0.158,-0.576 0.158,-0.553C0.158,-0.538 0.161,-0.525 0.168,-0.514C0.177,-0.498 0.193,-0.483 0.213,-0.468C0.229,-0.458 0.264,-0.438 0.319,-0.411C0.397,-0.373 0.449,-0.337 0.476,-0.303C0.503,-0.269 0.516,-0.231 0.516,-0.187C0.516,-0.132 0.494,-0.084 0.451,-0.044C0.408,-0.004 0.354,0.016 0.287,0.016C0.266,0.016 0.247,0.014 0.228,0.009C0.209,0.005 0.186,-0.003 0.158,-0.015C0.143,-0.021 0.13,-0.024 0.12,-0.024C0.111,-0.024 0.102,-0.021 0.093,-0.015C0.083,-0.008 0.076,0.002 0.07,0.015L0.052,0.015L0.052,-0.235L0.07,-0.235C0.084,-0.165 0.112,-0.111 0.152,-0.074C0.193,-0.037 0.237,-0.019 0.285,-0.019C0.321,-0.019 0.35,-0.028 0.372,-0.048C0.393,-0.068 0.404,-0.091 0.404,-0.118C0.404,-0.133 0.4,-0.148 0.392,-0.163C0.383,-0.178 0.371,-0.192 0.354,-0.205C0.337,-0.218 0.307,-0.235 0.264,-0.256C0.204,-0.286 0.161,-0.311 0.134,-0.332C0.108,-0.353 0.088,-0.376 0.073,-0.402C0.059,-0.428 0.052,-0.456 0.052,-0.487C0.052,-0.54 0.072,-0.584 0.11,-0.622C0.149,-0.659 0.198,-0.677 0.257,-0.677C0.278,-0.677 0.299,-0.675 0.319,-0.669C0.335,-0.666 0.353,-0.658 0.375,-0.647C0.397,-0.637 0.413,-0.632 0.421,-0.632C0.43,-0.632 0.437,-0.634 0.441,-0.64C0.446,-0.645 0.451,-0.657 0.455,-0.677L0.47,-0.677Z" style="fill:url(#_Radial4);fill-rule:nonzero;"/>
            </g>
            <g transform="matrix(66.2,0,0,66.2,334.331,314.495)">
                <path d="M0.47,-0.677L0.475,-0.457L0.455,-0.457C0.446,-0.512 0.422,-0.556 0.385,-0.59C0.348,-0.624 0.309,-0.641 0.266,-0.641C0.232,-0.641 0.206,-0.632 0.187,-0.614C0.167,-0.596 0.158,-0.576 0.158,-0.553C0.158,-0.538 0.161,-0.525 0.168,-0.514C0.177,-0.498 0.193,-0.483 0.213,-0.468C0.229,-0.458 0.264,-0.438 0.319,-0.411C0.397,-0.373 0.449,-0.337 0.476,-0.303C0.503,-0.269 0.516,-0.231 0.516,-0.187C0.516,-0.132 0.494,-0.084 0.451,-0.044C0.408,-0.004 0.354,0.016 0.287,0.016C0.266,0.016 0.247,0.014 0.228,0.009C0.209,0.005 0.186,-0.003 0.158,-0.015C0.143,-0.021 0.13,-0.024 0.12,-0.024C0.111,-0.024 0.102,-0.021 0.093,-0.015C0.083,-0.008 0.076,0.002 0.07,0.015L0.052,0.015L0.052,-0.235L0.07,-0.235C0.084,-0.165 0.112,-0.111 0.152,-0.074C0.193,-0.037 0.237,-0.019 0.285,-0.019C0.321,-0.019 0.35,-0.028 0.372,-0.048C0.393,-0.068 0.404,-0.091 0.404,-0.118C0.404,-0.133 0.4,-0.148 0.392,-0.163C0.383,-0.178 0.371,-0.192 0.354,-0.205C0.337,-0.218 0.307,-0.235 0.264,-0.256C0.204,-0.286 0.161,-0.311 0.134,-0.332C0.108,-0.353 0.088,-0.376 0.073,-0.402C0.059,-0.428 0.052,-0.456 0.052,-0.487C0.052,-0.54 0.072,-0.584 0.11,-0.622C0.149,-0.659 0.198,-0.677 0.257,-0.677C0.278,-0.677 0.299,-0.675 0.319,-0.669C0.335,-0.666 0.353,-0.658 0.375,-0.647C0.397,-0.637 0.413,-0.632 0.421,-0.632C0.43,-0.632 0.437,-0.634 0.441,-0.64C0.446,-0.645 0.451,-0.657 0.455,-0.677L0.47,-0.677Z" style="fill:url(#_Radial5);fill-rule:nonzero;"/>
            </g>
        </g>
    </g>
    <g id="Layer4" transform="matrix(1,0,0,1,-0.425952,0)">
        <g transform="matrix(-1,0,0,1,525.852,0)">
            <path d="M158.847,124.601C164.26,123.301 226.226,166.995 226.226,166.995C226.226,166.995 204.741,184.82 195.096,184.812C190.415,184.809 147.992,161.465 147.992,161.465C147.992,161.465 154.961,125.535 158.847,124.601Z" style="fill:#0e1280;"/>
        </g>
        <g transform="matrix(-1,0,0,1,525.852,0)">
            <path d="M149.266,120.188L137.49,157.052L47.17,157.052C47.17,157.052 11.538,145.718 4.626,120.188C4.578,120.01 149.266,120.188 149.266,120.188Z" style="fill:#0e1280;"/>
        </g>
        <g transform="matrix(-1,0,0,1,525.852,0)">
            <path d="M52.202,166.104C52.026,165.85 135.597,166.104 135.597,166.104C135.597,166.104 169.565,177.533 182.21,189.471C178.986,195.15 140.03,204.101 106.922,202.073C93.429,201.247 74.517,198.093 52.202,166.104Z" style="fill:#0e1280;"/>
        </g>
        <path d="M158.847,124.601C164.26,123.301 226.226,166.995 226.226,166.995C226.226,166.995 204.741,184.82 195.096,184.812C190.415,184.809 147.992,161.465 147.992,161.465C147.992,161.465 154.961,125.535 158.847,124.601Z" style="fill:#0e1280;"/>
        <path d="M149.266,120.188L137.49,157.052L47.17,157.052C47.17,157.052 11.538,145.718 4.626,120.188C4.578,120.01 149.266,120.188 149.266,120.188Z" style="fill:#0e1280;"/>
        <path d="M52.202,166.104C52.026,165.85 135.597,166.104 135.597,166.104C135.597,166.104 169.565,177.533 182.21,189.471C178.986,195.15 140.03,204.101 106.922,202.073C93.429,201.247 74.517,198.093 52.202,166.104Z" style="fill:#0e1280;"/>
    </g>
    <defs>
        <radialGradient id="_Radial1" cx="0" cy="0" r="1" gradientUnits="userSpaceOnUse" gradientTransform="matrix(0.0151057,0,0,0.0151057,-2.14916,-4.75068)"><stop offset="0" style="stop-color:#0a0e6f;stop-opacity:1"/><stop offset="0.22" style="stop-color:#17178e;stop-opacity:1"/><stop offset="0.5" style="stop-color:#1b1996;stop-opacity:1"/><stop offset="0.5" style="stop-color:#1b1996;stop-opacity:1"/><stop offset="1" style="stop-color:#010161;stop-opacity:1"/></radialGradient>
        <radialGradient id="_Radial2" cx="0" cy="0" r="1" gradientUnits="userSpaceOnUse" gradientTransform="matrix(0.0151057,0,0,0.0151057,-2.87432,-4.75068)"><stop offset="0" style="stop-color:#0a0e6f;stop-opacity:1"/><stop offset="0.22" style="stop-color:#17178e;stop-opacity:1"/><stop offset="0.5" style="stop-color:#1b1996;stop-opacity:1"/><stop offset="0.5" style="stop-color:#1b1996;stop-opacity:1"/><stop offset="1" style="stop-color:#010161;stop-opacity:1"/></radialGradient>
        <radialGradient id="_Radial3" cx="0" cy="0" r="1" gradientUnits="userSpaceOnUse" gradientTransform="matrix(0.0151057,0,0,0.0151057,-3.54432,-4.75068)"><stop offset="0" style="stop-color:#0a0e6f;stop-opacity:1"/><stop offset="0.22" style="stop-color:#17178e;stop-opacity:1"/><stop offset="0.5" style="stop-color:#1b1996;stop-opacity:1"/><stop offset="0.5" style="stop-color:#1b1996;stop-opacity:1"/><stop offset="1" style="stop-color:#010161;stop-opacity:1"/></radialGradient>
        <radialGradient id="_Radial4" cx="0" cy="0" r="1" gradientUnits="userSpaceOnUse" gradientTransform="matrix(0.0151057,0,0,0.0151057,-4.49116,-4.75068)"><stop offset="0" style="stop-color:#0a0e6f;stop-opacity:1"/><stop offset="0.22" style="stop-color:#17178e;stop-opacity:1"/><stop offset="0.5" style="stop-color:#1b1996;stop-opacity:1"/><stop offset="0.5" style="stop-color:#1b1996;stop-opacity:1"/><stop offset="1" style="stop-color:#010161;stop-opacity:1"/></radialGradient>
        <radialGradient id="_Radial5" cx="0" cy="0" r="1" gradientUnits="userSpaceOnUse" gradientTransform="matrix(0.0151057,0,0,0.0151057,-5.05032,-4.75068)"><stop offset="0" style="stop-color:#0a0e6f;stop-opacity:1"/><stop offset="0.22" style="stop-color:#17178e;stop-opacity:1"/><stop offset="0.5" style="stop-color:#1b1996;stop-opacity:1"/><stop offset="0.5" style="stop-color:#1b1996;stop-opacity:1"/><stop offset="1" style="stop-color:#010161;stop-opacity:1"/></radialGradient>
    </defs>
</svg>
